<?xml version="1.0" encoding="utf-8"?>

<svg xmlns="http://www.w3.org/2000/svg" xmlns:xlink="http://www.w3.org/1999/xlink" 
  height="512" width="512" viewBox="0 0 512 512">



<!-- 喵喵框 -->
<path d="M440 230 A200 155, 1, 1, 1, 85 190 A195 100, 10, 0, 1, 97 103 A125 100, 0, 0, 1, 178 128 A85 30, 0, 0, 1, 270 121 A145 100, 0, 0, 1, 310 85 A165 90, 0, 0, 1, 348 116 A105 100, 0, 0, 1, 417 94 A125 100, 0, 0, 1, 435 150 A5 10, 0, 1, 1, 440 230z" stroke-width="10" stroke="#ff0000" fill="none" opacity="1"/>

<circle id="c1" cx="440" cy="230" r="0.5" stroke="#00fa9a" fill="none">
    <animate attributeName="r" to="10" dur="2s" repeatCount="indefinite"/>
  </circle>

<circle id="c2" cx="84" cy="192" r="0.5" stroke="#00fa9a" fill="none">
    <animate attributeName="r" to="10" dur="2s" repeatCount="indefinite"/>
  </circle>

<circle cx="0" cy="0" r="1" stroke="blue" fill="none">
    <animateMotion dur="5s" path="M440 227  A40 78, 40, 0, 0, 430 152     A100 470, 30, 0, 0, 346 120      A100 390, 0, 0, 0, 270 120     A190 100, 0, 0, 0, 176 128     A100 350, 150, 0, 0, 82 197     A200 150, 3, 1, 0, 440 227" repeatCount="indefinite" rotate="auto"/>
    <animate attributeName="r" to="15" dur="6s" repeatCount="indefinite"/>
  </circle>


<!-- 鼻子 -->
<ellipse fill="#ffff00" stroke="#ffd700" stroke-width="6" cx="256" cy="340" rx="25" ry="13"/>

<!-- 眼睛 -->
<ellipse fill="#000000" stroke="#000" stroke-width="10" cx="155" cy="307" rx="9" ry="14"/>
  <ellipse fill="#000000" stroke="#000" stroke-width="10" cx="355" cy="307" rx="9" ry="14"/>

<!-- 蝴蝶結 -->
<circle fill="#FF1493" stroke="#ff0000" stroke-width="8" cx="358" cy="179" r="35"/>
<path d="M346 145 Q280 140, 323 183" stroke-width="8" stroke="#ff0000" fill="none"/>
<path d="M393 173 Q443 210, 382 206" stroke-width="8" stroke="#ff0000" fill="none"/>

<path d="M365 213 L395 245 A50 30,0 0 0 438 230" stroke-width="10" stroke="#ff0000" fill="none"/>
<path d="M268 122 L258 180 A50 50,0 0 0 325 195" stroke-width="8" stroke="#ff0000" fill="none"/>

<path d="M350 120 A50 100,60 0 1 358 142" stroke-width="8" stroke="#ff0000" fill="none"/>
<path d="M436 151 A50 100,80 0 0 391 160" stroke-width="8" stroke="#ff0000" fill="none"/>


<!--鬍鬚--> 
  <path d="M15 290 L100 290"  stroke-width="10" stroke="black"/>
  <path d="M25 340 L95 325"  stroke-width="10" stroke="black"/>
  <path d="M52 393 L118 355"  stroke-width="10" stroke="black"/>

 <path d="M500 280 L415 283"  stroke-width="10" stroke="black"/>
  <path d="M488 325 L420 320"  stroke-width="10" stroke="black"/>
  <path d="M473 380 L405 356"  stroke-width="10" stroke="black"/>

</svg>
    